<svg class="logo-svg" xmlns="http://www.w3.org/2000/svg" viewBox="0 0 889.80466 701.34118" height="748.097" width="949.125"><path d="M162.533 518.603a10670.91 10670.91 0 0 1-10.797-37.5l-5.21-18.25h-42.702v-94h113v-31.66l-27.944-25.682-27.943-25.682-7.483 2.512c-28.414 9.538-56.114-8.497-58.348-37.988-1.313-17.34 7.772-33.472 23.11-41.037 12.844-6.335 25.883-6.632 38.538-.878 19.05 8.661 29.177 30.373 23.532 50.447-.846 3.007-1.633 5.964-1.75 6.57-.117.606 12.51 12.868 28.06 27.25l28.272 26.148h112.478c83.802 0 112.478-.292 112.478-1.145 0-.63-6.547-41.917-14.55-91.75-12.315-76.699-15.863-96.59-23.119-129.605-4.714-21.45-8.961-42.093-9.439-45.872-3.5-27.7 20.394-52.506 48.5-50.35 14.062 1.079 26.589 8.335 34.353 19.899 4.653 6.931 6.326 12.556 12.365 41.573 1.86 8.937 3.609 16.242 3.886 16.233.277-.01 4.748-11.274 9.935-25.032 5.187-13.758 10.897-27.192 12.689-29.853C547.058 4.22 571.804-2.253 591.94 7.912c16.129 8.142 25.041 22.675 25.155 41.019.054 8.559.035 8.621-8.055 27.47-4.46 10.392-8.02 18.97-7.913 19.062.108.093 31.246-3.543 69.196-8.079 37.95-4.536 69.086-8.188 69.192-8.114.106.074 1.845 14.297 3.865 31.608 3.211 27.526 3.6 33.294 3.098 45.975-.664 16.798-2.715 26.98-8.555 42.478-10.517 27.909-30.861 53.16-56.102 69.635-1.95 1.272-2.228 1.906-1.318 3.001.634.764 4.789 21.638 9.234 46.387 4.444 24.75 8.315 46.011 8.602 47.249l.522 2.25H794.824v94.976l-37.686.262-37.686.262-9.907 37c-5.448 20.35-9.987 37.085-10.086 37.188-.098.104-55.07-16.648-122.157-37.226l-121.978-37.416-32.588-.023-32.589-.023-109.897 37.5c-60.443 20.625-110.399 37.5-111.013 37.5-.614 0-3.63-8.663-6.704-19.25zm84.575-35.75l60.54-20.5-67.071-.257c-36.89-.142-67.252-.077-67.472.142-.22.22 1.68 7.536 4.22 16.257 6.44 22.108 7.583 25.502 8.467 25.159.426-.166 28.018-9.526 61.316-20.801zm438.912-.25c3.09-11.688 5.507-21.366 5.37-21.507-.135-.14-33.425-.14-73.977 0l-73.731.257 67.82 21.185c37.302 11.652 68.065 21.214 68.361 21.25.297.036 3.068-9.498 6.157-21.185zM475.824 434.46c0-.87-14.029-86.272-14.515-88.358l-.523-2.25H241.824v50h-114v41h174c95.7 0 174-.176 174-.392zm293-20.108v-20.5h-95.185c-93.826 0-95.244-.03-99.407-2.044-8.932-4.324-9.851-15.53-1.793-21.868 2.61-2.053 3.48-2.088 51.52-2.088 46.464 0 48.865-.089 48.865-1.808 0-1.923-14.887-83.412-15.317-83.842-.14-.14-4.434 1.057-9.543 2.658-15.654 4.908-29.673 6.438-47.029 5.13-36.233-2.728-63.216-15.531-80.746-38.313-9.405-12.223-17.364-34.012-17.715-48.503-.135-5.562.14-6.482 2.765-9.227 8.29-8.671 20.461-4.454 22.109 7.66 4.494 33.043 23.266 52.58 57.476 59.819 29.644 6.273 63.166-1.418 88.523-20.31 9.267-6.903 21.431-19.36 27.187-27.841 7.7-11.346 14.983-28.192 17.707-40.959l.648-3.036-8.729-1.648c-15.171-2.864-29.83-11.634-39.984-23.92-4.99-6.04-11.945-19.17-12.928-24.412-.358-1.908-.997-3.684-1.42-3.945-.895-.554-199.595 23.184-200.748 23.983-.135.093 10.553 66.462 23.75 147.488 13.196 81.025 23.994 147.478 23.994 147.672 0 .195 59.85.354 133 .354h133zM558.83 190.26c-13.682-5.933-16.128-24.111-4.444-33.023 7.066-4.2 16.96-4.462 22.873 0 8.824 6.73 10.136 20.085 2.75 27.992-5.616 6.013-14.208 8.054-21.18 5.03zm-411.918 71.545c1.006-.538 3.05-2.58 4.544-4.538 6.629-8.69 2.875-22.593-7.135-26.422-16.823-6.435-31.364 13.318-19.864 26.985 2.941 3.496 5.56 5.091 9.866 6.01 3.13.669 9.445-.352 12.589-2.035zM719.77 139.103c-.07-6.195-2.509-30.145-3.134-30.77-.475-.475-30.14 3.187-32.544 4.017-.91.314-.696 1.676.82 5.214 4.838 11.295 15.124 20.65 26.815 24.391 8.064 2.58 8.103 2.566 8.043-2.852zm-248.056-29.23c9.015-1.084 16.557-2.136 16.76-2.339.204-.203-3.183-16.012-7.526-35.131-8.657-38.113-9.722-40.856-17.41-44.827-12.144-6.274-27.651 2.937-27.699 16.452-.013 3.717 11.704 61.604 13.475 66.575.594 1.666 3.131 1.583 22.4-.73zm77.023-7.055c9.122-1.12 17.533-2.237 18.691-2.483 1.667-.354 4.241-5.294 12.357-23.715 10.934-24.816 11.996-29.111 8.742-35.344-3.157-6.049-12.722-12.38-18.704-12.38-6.043 0-15.648 6.949-17.899 12.948-.517 1.38-5.908 15.334-11.98 31.009-6.07 15.675-11.33 29.287-11.686 30.25-.839 2.26-.2 2.252 20.479-.285z" fill="#582a72"/><g style="line-height:125%" font-weight="400" font-size="90" font-family="Fontdiner Swanky" letter-spacing="0" word-spacing="0" fill="#582a72"><path style="-inkscape-font-specification:'Fontdiner Swanky'" d="M57.744 640.433q0 5.186-2.724 8.79-2.725 3.515-6.856 5.712-4.13 2.197-8.965 3.164-4.834 1.055-9.053 1.055-5.273 0-10.634-1.67-5.274-1.582-9.58-4.658l-6.944 14.15 3.164-32.783q1.143 3.955 3.34 7.207 2.285 3.164 5.274 5.449 2.988 2.285 6.591 3.516 3.692 1.23 7.823 1.23 1.494 0 3.515-.264 2.11-.351 3.955-1.142 1.934-.791 3.252-2.11 1.319-1.318 1.319-3.251 0-2.461-2.022-4.307-1.933-1.846-4.658-3.076-2.725-1.319-5.625-2.11-2.9-.79-4.658-1.142-3.604-.703-7.822-1.934-4.22-1.23-7.91-3.252-3.604-2.11-6.065-5.185Q0 620.658 0 616.087q0-5.273 2.46-8.789 2.462-3.603 6.241-5.713 3.867-2.11 8.438-2.988 4.658-.879 9.052-.879 6.329 0 11.338 1.494 5.01 1.494 10.547 4.57l8.79-10.722-3.253 28.916q-2.197-3.516-5.185-6.592-2.9-3.076-6.416-5.361-3.516-2.373-7.559-3.692-3.955-1.406-8.174-1.406-1.494 0-3.515.44-1.934.351-3.78 1.23-1.845.791-3.164 2.11-1.23 1.318-1.23 3.251 0 1.846 1.494 3.164 1.582 1.23 3.691 2.11 2.198.79 4.395 1.318 2.197.528 3.516.791 3.955.88 9.14 2.373 5.186 1.494 9.844 3.955 4.658 2.461 7.822 6.065 3.252 3.603 3.252 8.701zM100.02 599.74L99.229 608q-4.307-.351-8.526-.615-4.219-.351-8.525-.79-.703 8.349-1.494 16.61-.791 8.262-1.582 16.612 0 .44-.088.879-.088.44-.088.879 0 1.23.263 2.548.264 1.23.88 2.286.615.966 1.581 1.67 1.055.615 2.55.615 2.9 0 5.097-1.319 2.197-1.406 3.691-3.515 1.494-2.11 2.373-4.658.88-2.637 1.143-5.186 1.055 4.13 1.055 8.174 0 3.867-1.23 7.031-1.231 3.076-3.429 5.361-2.197 2.198-5.273 3.428-3.076 1.23-6.768 1.23-3.867 0-6.767-1.318-2.9-1.318-4.834-3.603-1.846-2.373-2.813-5.537-.879-3.164-.879-6.768v-1.318q0-.616.088-1.319.703-8.525 1.319-16.787.703-8.35 1.23-16.875l-4.746-.351q-2.285-.264-4.658-.528l.351-6.943q1.846-.088 3.868-.615 2.021-.528 3.867-1.407 1.933-.878 3.515-2.109 1.67-1.23 2.725-2.812.967-1.582 1.758-3.428.879-1.846 1.494-3.867.703-2.022 1.143-3.955.439-2.022.615-3.868l7.207.176-2.285 21.973 16.963 1.758z"/><path style="-inkscape-font-specification:'Fontdiner Swanky'" d="M154.248 613.626q0 3.604-2.197 5.977-2.197 2.285-5.889 2.285-2.724 0-4.219-.967-1.494-1.054-2.548-2.285-.967-1.318-2.022-2.285-.967-1.055-2.812-1.055-3.252 0-5.186 2.11-1.934 2.021-2.9 4.834-.088.175-.176 1.67 0 1.494-.088 3.779t-.176 5.01q-.088 2.724-.176 5.185-.088 2.461-.175 4.395-.088 1.845-.088 2.46l21.357 7.735-50.8 5.186q4.57-2.9 9.14-5.713 4.57-2.9 9.14-5.713l-3.251-30.674-19.6-5.273 35.42-7.735-.176 8.086q3.692-2.549 7.559-4.307 3.955-1.845 8.7-1.845 1.583 0 3.253.351 1.67.352 3.164 1.055 1.494.703 2.637 1.934 1.142 1.142 1.67 2.812.439 1.582.439 2.988z"/><path style="-inkscape-font-specification:'Fontdiner Swanky'" d="M198.809 640.52q0 .616-.088 1.231v1.23l-35.772.704q1.143 5.185 5.186 7.646 4.043 2.461 9.14 2.461 2.461 0 5.01-.351 2.549-.352 5.01-1.143 2.46-.79 4.658-2.021 2.197-1.319 3.955-3.076-.967 3.691-3.252 6.503-2.285 2.813-5.449 4.659-3.076 1.845-6.768 2.724-3.603.967-7.207.967-4.921 0-9.404-1.758-4.394-1.758-7.734-4.834-3.252-3.076-5.186-7.383-1.933-4.306-1.933-9.404 0-5.361 2.197-9.756 2.197-4.394 5.8-7.47 3.604-3.164 8.35-4.834 4.746-1.67 9.932-1.67 5.45 0 9.756 2.021 4.394 2.022 7.47 5.537 3.077 3.516 4.659 8.174 1.67 4.57 1.67 9.844zm-13.448-4.482q-.175-2.373-.966-4.57-.791-2.197-2.198-3.867-1.406-1.67-3.427-2.637-1.934-1.054-4.57-1.054-2.637 0-4.571.966-1.934.967-3.252 2.637-1.318 1.582-2.197 3.78-.791 2.109-1.23 4.394l22.411.351zM237.48 599.74l-.79 8.261q-4.307-.351-8.526-.615-4.219-.351-8.525-.79-.703 8.349-1.494 16.61-.791 8.262-1.582 16.612 0 .44-.088.879-.088.44-.088.879 0 1.23.263 2.548.264 1.23.88 2.286.615.966 1.581 1.67 1.055.615 2.55.615 2.9 0 5.097-1.319 2.197-1.406 3.691-3.515 1.494-2.11 2.373-4.658.88-2.637 1.143-5.186 1.055 4.13 1.055 8.174 0 3.867-1.231 7.031-1.23 3.076-3.428 5.361-2.197 2.198-5.273 3.428-3.076 1.23-6.768 1.23-3.867 0-6.767-1.318-2.9-1.318-4.834-3.603-1.846-2.373-2.813-5.537-.879-3.164-.879-6.768v-1.318q0-.616.088-1.319.703-8.525 1.319-16.787.703-8.35 1.23-16.875l-4.746-.351q-2.285-.264-4.658-.528l.351-6.943q1.846-.088 3.868-.615 2.021-.528 3.867-1.407 1.933-.878 3.515-2.109 1.67-1.23 2.725-2.812.967-1.582 1.758-3.428.879-1.846 1.494-3.867.703-2.022 1.142-3.955.44-2.022.616-3.868l7.207.176-2.285 21.973 16.962 1.758zM287.578 638.587q.088 5.625-1.582 10.02-1.582 4.394-4.746 7.383-3.076 2.988-7.559 4.482-4.394 1.582-9.843 1.582-5.362 0-10.108-1.758-4.658-1.758-8.174-5.01-3.427-3.251-5.449-7.734-2.021-4.482-2.021-10.02 0-5.8 2.285-10.546 2.285-4.746 6.152-8.086t8.877-5.098q5.098-1.846 10.635-1.846 2.988 0 6.504.967 3.603.967 6.68 2.813 3.164 1.845 5.185 4.57 2.11 2.725 2.11 6.328 0 3.34-2.022 5.361-2.022 2.022-5.361 2.022-3.34 0-5.713-1.846-2.373-1.933-2.373-5.361 0-1.143.175-2.373.264-1.318.88-2.285-1.495-1.23-3.253-1.758-1.757-.527-3.603-.527-3.34 0-5.713 1.67-2.285 1.582-3.78 4.042-1.406 2.461-2.02 5.538-.616 2.988-.616 5.712 0 3.428 1.055 6.329 1.054 2.812 3.076 4.921 2.021 2.022 4.834 3.252 2.812 1.143 6.416 1.143 3.164 0 5.976-1.23 2.813-1.23 5.186-3.165 2.373-2.021 4.307-4.482 2.021-2.46 3.603-5.01z"/><path style="-inkscape-font-specification:'Fontdiner Swanky'" d="M355.87 662.757l-36.827-1.054 12.48-6.768V638.85q0-5.45-2.812-8.438-2.813-2.988-8.262-2.988-2.285 0-5.185.528-2.813.439-4.834 1.494l-.528 10.02q-.175 4.921-.351 9.93l11.162 6.68-36.826 1.495 14.15-7.823-2.285-59.062-21.621-5.713 38.496-5.713-1.846 42.188q2.198-.704 4.483-.967 2.285-.264 4.57-.264h.352q3.779 0 8.173.791 4.395.703 8.086 2.549 3.78 1.758 6.24 4.922 2.461 3.076 2.461 7.822 0 1.67-.351 4.131-.264 2.46-.703 5.098-.44 2.636-.967 5.097l-.879 3.955 13.623 8.174zM441.035 596.927l-3.691 30.938-7.47-23.38-11.69-.175-1.407 44.297 19.864 9.58-52.823-.527 19.248-9.493-1.23-44.033-10.899-.088-7.998 23.643-2.636-31.64 60.732.878z"/><path style="-inkscape-font-specification:'Fontdiner Swanky'" d="M511.348 662.757l-36.827-1.054 12.48-6.768.001-16.084q0-5.45-2.813-8.438-2.812-2.988-8.261-2.988-2.285 0-5.186.528-2.812.439-4.834 1.494l-.527 10.02q-.176 4.921-.352 9.93l11.162 6.68-36.826 1.495 14.15-7.823-2.285-59.062-21.62-5.713 38.495-5.713-1.845 42.188q2.197-.704 4.482-.967 2.285-.264 4.57-.264h.352q3.78 0 8.174.791 4.394.703 8.086 2.549 3.78 1.758 6.24 4.922 2.461 3.076 2.461 7.822 0 1.67-.352 4.131-.263 2.46-.703 5.098-.44 2.636-.966 5.097l-.88 3.955 13.624 8.174zM555.996 640.52q0 .616-.088 1.231v1.23l-35.771.704q1.142 5.185 5.185 7.646 4.043 2.461 9.14 2.461 2.462 0 5.01-.351 2.55-.352 5.01-1.143 2.461-.79 4.659-2.021 2.197-1.319 3.955-3.076-.967 3.691-3.252 6.503-2.285 2.813-5.45 4.659-3.076 1.845-6.767 2.724-3.604.967-7.207.967-4.922 0-9.404-1.758-4.395-1.758-7.735-4.834-3.252-3.076-5.185-7.383-1.934-4.306-1.934-9.404 0-5.361 2.197-9.756 2.198-4.394 5.801-7.47 3.604-3.164 8.35-4.834 4.746-1.67 9.931-1.67 5.45 0 9.756 2.021 4.395 2.022 7.471 5.537 3.076 3.516 4.658 8.174 1.67 4.57 1.67 9.844zm-13.447-4.482q-.176-2.373-.967-4.57-.791-2.197-2.197-3.867-1.406-1.67-3.428-2.637-1.934-1.054-4.57-1.054-2.637 0-4.57.966-1.934.967-3.253 2.637-1.318 1.582-2.197 3.78-.79 2.109-1.23 4.394l22.412.351z"/><path style="-inkscape-font-specification:'Fontdiner Swanky'" d="M581.396 594.378q0 1.934-.79 3.692-.704 1.67-2.022 2.988-1.23 1.23-2.988 2.021-1.67.704-3.604.704-1.933 0-3.603-.704-1.67-.79-2.989-2.021-1.23-1.318-2.021-2.988-.703-1.758-.703-3.692 0-1.933.703-3.603.79-1.67 2.021-2.9 1.319-1.319 2.989-2.022 1.67-.791 3.603-.791 1.934 0 3.604.79 1.758.704 2.988 2.022 1.318 1.23 2.021 2.9.791 1.67.791 3.604zm10.284 62.315l-39.375-.703 14.59-9.053-1.23-29.18-16.788-7.91h32.256l-2.9 37.705 13.447 9.14z"/><path style="-inkscape-font-specification:'Fontdiner Swanky'" d="M643.447 613.626q0 3.604-2.197 5.977-2.197 2.285-5.889 2.285-2.724 0-4.218-.967-1.495-1.054-2.55-2.285-.966-1.318-2.02-2.285-.968-1.055-2.813-1.055-3.252 0-5.186 2.11-1.933 2.021-2.9 4.834-.088.175-.176 1.67 0 1.494-.088 3.779t-.176 5.01q-.088 2.724-.175 5.185-.088 2.461-.176 4.395-.088 1.845-.088 2.46l21.357 7.735-50.8 5.186q4.57-2.9 9.14-5.713 4.57-2.9 9.14-5.713l-3.251-30.674-19.6-5.273 35.42-7.735-.176 8.086q3.692-2.549 7.559-4.307 3.955-1.845 8.701-1.845 1.582 0 3.252.351 1.67.352 3.164 1.055 1.494.703 2.637 1.934 1.142 1.142 1.67 2.812.44 1.582.44 2.988zM732.92 652.913l-67.94 2.989 20.918-10.108-2.724-51.591-21.71-8.262 58.975-.176-19.95 8.525-.88 51.329 21.446.703 11.865-30.498v37.09zM786.27 640.52q0 .616-.088 1.231v1.23l-35.772.704q1.143 5.185 5.186 7.646 4.043 2.461 9.14 2.461 2.461 0 5.01-.351 2.549-.352 5.01-1.143 2.46-.79 4.658-2.021 2.197-1.319 3.955-3.076-.967 3.691-3.252 6.503-2.285 2.813-5.449 4.659-3.076 1.845-6.768 2.724-3.603.967-7.207.967-4.922 0-9.404-1.758-4.394-1.758-7.734-4.834-3.252-3.076-5.186-7.383-1.933-4.306-1.933-9.404 0-5.361 2.197-9.756 2.197-4.394 5.8-7.47 3.604-3.164 8.35-4.834 4.746-1.67 9.932-1.67 5.449 0 9.756 2.021 4.394 2.022 7.47 5.537 3.077 3.516 4.659 8.174 1.67 4.57 1.67 9.844zm-13.448-4.482q-.176-2.373-.967-4.57-.79-2.197-2.197-3.867-1.406-1.67-3.428-2.637-1.933-1.054-4.57-1.054-2.637 0-4.57.966-1.934.967-3.252 2.637-1.318 1.582-2.197 3.78-.791 2.109-1.23 4.394l22.411.351zM846.21 609.056q0 1.582-.614 3.076-.616 1.494-1.67 2.725-1.055 1.142-2.461 1.933-1.406.704-2.988.704-3.252 0-5.274-2.286-1.933-2.285-1.933-5.361v-.352q-.44-.087-.967.616-.44.615-.967 1.494l-.879 1.758q-.352.79-.527 1.142 5.273 2.989 8.35 7.998 3.163 4.922 3.163 10.987 0 4.746-2.021 8.877-1.934 4.13-5.274 7.207-3.252 2.988-7.558 4.746-4.307 1.67-8.965 1.67-1.758 0-3.516-.088-1.757-.176-3.515-.616-1.23.792-1.23 1.846 0 1.055 1.67 1.582 1.757.615 3.866.88 2.198.263 4.22.35 2.109.089 2.812.089 4.746.263 9.228 1.67 4.483 1.406 7.91 4.042 3.516 2.725 5.537 6.68 2.11 3.955 2.11 9.229 0 5.537-2.813 9.316-2.812 3.78-7.119 6.065-4.219 2.285-9.316 3.252-5.01 1.054-9.492 1.054-4.57 0-9.668-1.054-5.01-.967-9.317-3.252-4.219-2.286-7.031-6.065-2.813-3.78-2.813-9.316 0-5.537 3.077-9.14 3.076-3.604 7.734-6.065-2.285-.967-3.955-2.55-1.67-1.581-1.67-4.218 0-1.582.615-2.9.703-1.23 1.758-2.11 1.143-.967 2.461-1.582 1.406-.703 2.725-1.142-4.747-3.077-7.647-7.823-2.9-4.834-2.9-10.634 0-5.01 2.11-9.141 2.108-4.219 5.624-7.207 3.516-2.988 7.998-4.658 4.57-1.67 9.317-1.67 3.164 0 6.503.79.967-2.109 2.286-4.13 1.318-2.11 2.988-3.78t3.78-2.724q2.109-1.055 4.657-1.055 1.934 0 3.955.616 2.11.615 3.78 1.845 1.67 1.143 2.724 2.813 1.143 1.67 1.143 3.867zm-20.126 24.434q0-2.461-.703-5.274-.703-2.9-2.197-5.273-1.407-2.373-3.604-3.955-2.197-1.582-5.185-1.582-2.989 0-5.186 1.582t-3.691 3.955q-1.495 2.373-2.286 5.185-.703 2.813-.703 5.362 0 2.548.703 5.449.791 2.812 2.198 5.185 1.494 2.373 3.691 3.955 2.285 1.582 5.274 1.582 2.988 0 5.185-1.582 2.197-1.582 3.604-3.955 1.494-2.46 2.197-5.273.703-2.813.703-5.361zm4.922 48.164q0-3.252-1.23-5.625-1.231-2.373-3.34-3.955-2.11-1.582-4.834-2.373-2.725-.704-5.625-.704t-5.625.704q-2.725.79-4.834 2.373-2.022 1.582-3.252 3.955t-1.23 5.625q0 3.252 1.23 5.625t3.252 3.867q2.109 1.582 4.834 2.285 2.724.791 5.625.791 2.9 0 5.625-.791 2.724-.703 4.834-2.285 2.109-1.494 3.34-3.867 1.23-2.373 1.23-5.625z"/><path style="-inkscape-font-specification:'Fontdiner Swanky'" d="M889.805 641.663q0 4.395-2.022 7.207-2.021 2.813-5.097 4.483-3.077 1.582-6.856 2.285-3.78.615-7.295.615-2.021 0-4.482-.263-2.373-.352-4.746-.967t-4.659-1.494q-2.197-.88-3.955-2.11l-7.119 8.35 2.725-26.895q1.494 3.252 3.78 6.153 2.372 2.9 5.36 5.097 2.989 2.198 6.416 3.516 3.428 1.23 7.12 1.23.966 0 2.197-.087 1.318-.176 2.46-.616 1.231-.44 2.022-1.23.791-.791.791-2.11 0-1.494-1.582-2.724-1.582-1.318-3.691-2.197-2.11-.967-4.219-1.582l-3.164-1.055q-2.988-.879-6.592-2.373-3.515-1.582-6.592-3.692-2.988-2.197-5.01-5.097-2.02-2.988-2.02-6.856 0-3.691 1.757-6.591 1.846-2.9 4.658-4.834 2.813-2.022 6.24-2.989 3.516-1.054 6.856-1.054 5.273 0 9.932 1.933 4.746 1.846 8.613 5.361l5.45-10.546-1.144 27.773q-1.582-2.988-3.955-5.977-2.373-3.076-5.273-5.537-2.9-2.46-6.24-3.955-3.34-1.494-6.944-1.494-1.054 0-2.46.264-1.319.176-2.55.703-1.142.527-2.02 1.494-.792.879-.792 2.285 0 1.67 1.23 2.9 1.319 1.231 3.077 2.198 1.845.879 3.691 1.582 1.934.615 3.164.967 3.164 1.054 7.12 2.46 3.954 1.407 7.47 3.428 3.516 2.022 5.889 5.01 2.46 2.9 2.46 7.031z"/></g></svg>
