<?xml version="1.0" standalone="no"?>
<!DOCTYPE svg PUBLIC "-//W3C//DTD SVG 20010904//EN"
 "http://www.w3.org/TR/2001/REC-SVG-20010904/DTD/svg10.dtd">
<svg version="1.0" xmlns="http://www.w3.org/2000/svg"
 width="700.000000pt" height="700.000000pt" viewBox="0 0 700.000000 700.000000"
 preserveAspectRatio="xMidYMid meet">
<metadata>
Created by potrace 1.14, written by Peter Selinger 2001-2017
</metadata>
<g transform="translate(0.000000,700.000000) scale(0.100000,-0.100000)"
fill="#000000" stroke="none">
<path d="M3515 6151 c-206 -58 -341 -243 -331 -454 3 -45 7 -93 10 -107 6 -24
44 -212 51 -255 2 -11 9 -45 15 -75 6 -30 13 -64 15 -75 1 -11 6 -36 9 -55 4
-19 11 -60 16 -90 17 -97 20 -114 25 -140 3 -14 10 -52 16 -85 5 -33 12 -71
15 -85 2 -14 7 -40 10 -59 3 -18 8 -43 10 -55 2 -11 7 -37 9 -56 3 -19 8 -46
11 -60 3 -14 8 -36 10 -50 11 -71 14 -88 19 -125 4 -22 8 -47 11 -56 2 -9 7
-32 9 -50 3 -19 7 -45 10 -59 3 -14 27 -158 55 -320 27 -162 52 -306 55 -320
2 -13 7 -42 10 -65 4 -22 17 -105 30 -185 26 -154 36 -223 39 -254 1 -18 -31
-19 -1121 -23 -940 -5 -1124 -3 -1136 8 -8 8 -63 60 -123 115 -171 160 -212
199 -322 306 -101 100 -102 101 -95 137 15 69 9 203 -11 256 -112 295 -479
383 -700 168 -177 -171 -179 -427 -5 -593 121 -116 256 -140 473 -86 45 11 61
12 71 3 26 -26 249 -233 268 -250 30 -26 173 -154 229 -206 l48 -44 0 -158 0
-159 -565 0 -565 0 0 -470 0 -470 214 0 215 0 16 -57 c13 -47 162 -555 180
-613 2 -8 8 -28 13 -45 6 -22 14 -29 28 -27 18 3 1083 356 1114 369 8 3 17 7
20 8 62 19 309 104 755 260 105 36 197 68 205 70 8 2 35 11 59 19 36 13 98 16
375 16 245 0 335 -3 344 -12 7 -7 12 -9 12 -6 0 4 12 3 28 -2 15 -5 74 -22
132 -40 58 -17 112 -34 120 -37 8 -3 21 -7 28 -9 17 -3 115 -33 187 -57 33
-10 65 -20 70 -22 6 -1 17 -4 25 -7 27 -10 135 -42 147 -44 7 -1 57 -16 110
-33 141 -43 236 -72 253 -76 8 -2 74 -22 145 -45 72 -23 135 -43 140 -44 14
-3 244 -75 275 -86 14 -4 84 -26 155 -48 72 -22 175 -55 230 -72 55 -17 107
-33 115 -35 8 -2 64 -19 125 -39 60 -19 111 -33 114 -31 4 5 119 389 125 420
9 45 76 308 79 311 6 6 239 12 515 13 l242 1 0 475 0 475 -479 0 c-264 0 -482
4 -485 8 -3 5 -19 92 -36 193 -41 244 -44 261 -55 342 -3 20 -8 54 -11 75 -8
48 -11 66 -19 132 -4 30 -9 58 -11 61 -2 4 -6 24 -9 45 -3 22 -8 50 -12 64
-15 64 -14 67 58 120 122 91 242 219 337 360 54 81 131 230 153 295 7 22 16
45 20 50 4 6 17 51 30 100 34 133 33 352 -6 770 -2 28 -7 86 -11 130 -4 44 -8
89 -10 100 -1 11 -3 26 -3 33 -1 10 -13 12 -48 7 -27 -4 -59 -8 -73 -10 -63
-9 -118 -16 -150 -20 -117 -15 -209 -27 -235 -30 -16 -3 -50 -7 -75 -9 -25 -3
-58 -7 -75 -10 -16 -2 -55 -7 -85 -11 -30 -3 -71 -8 -90 -10 -19 -2 -57 -7
-85 -10 -27 -3 -61 -8 -75 -10 -14 -3 -54 -7 -90 -11 -36 -3 -76 -8 -90 -10
-14 -1 -54 -5 -90 -9 -36 -3 -76 -8 -89 -10 -30 -5 -45 3 -33 18 5 7 28 59 51
117 24 58 49 119 57 135 36 80 43 117 40 213 -3 105 -23 167 -78 249 -52 77
-171 158 -263 178 -50 12 -184 14 -191 4 -3 -5 -9 -7 -13 -4 -12 7 -100 -28
-148 -58 -99 -63 -122 -98 -218 -339 -49 -123 -100 -248 -113 -278 l-24 -55
-19 78 c-10 43 -21 88 -23 100 -72 335 -90 383 -180 464 -57 52 -119 88 -184
105 -65 18 -182 17 -247 -1z m176 -253 c29 -16 47 -37 67 -77 15 -31 26 -57
25 -58 -1 -2 3 -17 8 -35 10 -34 16 -54 23 -85 2 -10 15 -65 29 -123 48 -200
91 -410 85 -416 -7 -6 -91 -17 -140 -18 -16 -1 -28 -3 -28 -6 0 -3 -15 -5 -33
-6 -17 0 -65 -3 -105 -6 -87 -7 -82 -12 -106 127 -18 101 -21 119 -36 190 -6
28 -12 61 -15 75 -3 14 -8 41 -12 60 -3 19 -8 44 -9 55 -1 11 -3 20 -4 20 -8
0 -29 153 -24 179 21 117 169 184 275 124z m1137 -34 c100 -50 144 -130 115
-212 -7 -20 -12 -37 -12 -37 12 0 -148 -359 -181 -405 -20 -28 -67 -42 -185
-55 -22 -3 -51 -7 -65 -10 -61 -13 -170 -17 -170 -8 0 6 48 132 106 279 58
148 114 292 125 321 31 81 118 149 195 152 11 1 43 -11 72 -25z m1393 -776 c1
-7 2 -26 4 -43 1 -16 5 -59 9 -95 4 -36 9 -98 11 -137 4 -79 2 -83 -52 -62
-15 6 -30 11 -33 11 -3 1 -26 12 -52 25 -91 46 -196 164 -222 249 -7 24 -6 25
224 49 36 4 67 9 69 11 10 9 41 3 42 -8z m-587 -144 c54 -145 167 -282 296
-358 45 -26 137 -68 160 -72 3 0 21 -4 40 -8 30 -6 73 -13 102 -15 4 -1 5 -7
3 -13 -2 -7 -7 -26 -9 -41 -18 -106 -122 -332 -199 -432 -76 -98 -223 -226
-343 -298 -58 -35 -205 -106 -222 -107 -4 -1 -31 -8 -60 -16 -199 -58 -458
-52 -633 14 -38 15 -123 55 -129 61 -3 4 -18 13 -34 21 -53 27 -161 146 -198
217 -33 62 -66 145 -73 183 -5 27 -18 95 -20 103 -2 4 -3 13 -4 20 -2 20 -46
65 -74 76 -52 20 -127 -12 -152 -65 -17 -37 -20 -97 -5 -140 5 -16 11 -40 13
-54 2 -14 6 -32 9 -40 3 -8 12 -35 19 -60 7 -25 26 -71 41 -103 16 -31 28 -60
28 -63 0 -12 82 -122 122 -164 48 -51 161 -140 176 -140 6 0 12 -4 14 -8 2 -5
30 -21 62 -36 218 -103 488 -147 744 -122 70 7 224 42 286 66 16 6 30 9 32 7
2 -2 9 -28 14 -58 6 -30 12 -65 15 -79 3 -14 7 -36 9 -50 14 -82 19 -107 21
-125 2 -11 4 -20 5 -20 1 0 3 -9 4 -20 1 -11 5 -36 9 -55 4 -19 9 -51 12 -70
4 -19 13 -69 21 -110 8 -41 16 -86 18 -100 1 -14 8 -54 15 -89 7 -34 10 -66 6
-69 -8 -8 -104 -11 -555 -12 -445 -2 -456 -4 -485 -60 -37 -71 -9 -156 60
-184 16 -6 297 -20 355 -17 48 2 144 0 151 -5 4 -2 10 0 14 6 4 6 10 8 15 5 8
-5 514 -8 545 -4 6 1 14 1 18 0 12 -2 289 -2 302 0 6 1 14 1 19 0 5 -1 125 -2
267 -1 l258 0 1 -205 0 -205 -1330 0 c-731 0 -1330 3 -1331 8 0 4 -2 16 -4 27
-3 11 -6 36 -9 55 -3 19 -8 46 -11 60 -3 14 -7 41 -10 60 -2 19 -7 46 -9 60
-3 13 -8 40 -11 60 -3 20 -8 47 -10 60 -3 14 -7 41 -10 60 -3 19 -7 46 -10 60
-3 14 -7 36 -9 50 -3 14 -8 45 -12 70 -4 25 -8 52 -9 60 -2 8 -5 29 -9 46 -3
17 -8 46 -10 65 -3 19 -10 66 -16 104 -7 39 -14 81 -15 95 -2 14 -7 41 -10 60
-4 19 -9 46 -11 60 -7 43 -14 84 -18 105 -2 11 -9 56 -16 100 -7 44 -14 89
-16 100 -3 11 -6 36 -9 55 -2 19 -8 60 -14 90 -10 55 -19 109 -27 165 -2 17
-6 41 -9 55 -3 14 -8 43 -11 65 -2 22 -7 51 -9 65 -2 14 -14 84 -25 155 -12
72 -23 141 -26 155 -9 50 -13 76 -18 120 -3 25 -8 54 -10 65 -4 19 -26 157
-32 200 -1 11 -12 81 -24 155 -31 192 -30 190 -17 191 7 0 21 2 32 5 11 2 47
6 80 9 33 3 76 7 95 10 19 2 71 9 115 15 44 5 105 13 135 16 108 11 126 13
175 19 28 3 61 8 75 10 14 2 52 7 85 10 33 3 76 8 95 10 77 10 146 19 240 29
30 4 71 9 90 11 19 3 60 7 90 10 30 3 66 8 80 10 14 2 52 6 85 9 33 3 76 8 95
11 73 10 117 15 180 20 36 3 90 9 120 13 129 17 122 20 154 -64z m-5147 -1075
c150 -57 134 -292 -22 -327 -127 -27 -238 85 -205 209 12 45 78 115 114 122
42 8 85 7 113 -4z m3179 -1176 c4 -27 8 -52 9 -58 4 -31 18 -117 25 -160 13
-67 20 -114 26 -150 2 -16 11 -68 19 -115 9 -47 18 -101 21 -120 2 -19 7 -46
10 -60 3 -14 8 -38 10 -55 4 -34 11 -76 19 -117 l5 -28 -1740 0 -1740 0 0 206
0 205 48 -1 c26 -1 52 -1 57 0 6 1 14 2 18 1 11 -2 529 -2 542 0 6 1 14 1 18
0 22 -4 218 -3 222 1 3 2 27 2 55 -2 27 -3 55 -3 61 0 6 4 27 4 47 1 76 -14
72 -29 72 250 l0 249 1094 0 1094 0 8 -47z m-2756 -1136 c55 0 107 4 115 7 8
3 17 1 20 -3 3 -5 21 -5 40 -1 19 4 37 4 40 0 3 -4 21 -4 40 0 19 4 37 4 40 0
3 -4 20 -4 39 0 19 4 50 5 68 1 18 -4 48 -4 66 0 17 4 32 4 32 0 0 -3 116 -6
258 -6 141 0 300 -2 352 -5 l95 -5 -225 -74 c-124 -41 -229 -76 -235 -77 -21
-5 -169 -55 -425 -144 -334 -116 -320 -112 -325 -97 -2 7 -20 57 -40 112 -54
146 -88 287 -72 297 6 4 13 4 14 0 2 -4 48 -6 103 -5z m5045 -8 c-9 -46 -38
-166 -57 -239 -11 -41 -21 -79 -22 -85 -1 -5 -4 -14 -7 -20 -4 -5 -9 -22 -13
-37 -6 -27 -21 -29 -71 -8 -11 4 -60 20 -110 35 -49 14 -137 41 -195 60 -58
18 -152 47 -210 65 -58 17 -116 35 -130 40 -14 5 -72 23 -130 40 -58 17 -116
35 -130 40 -14 5 -72 23 -130 40 -58 18 -118 37 -135 43 -16 7 -32 12 -35 12
-3 1 -21 5 -40 10 l-35 9 30 5 c16 3 343 8 727 10 l697 3 -4 -23z"/>
<path d="M4606 4618 c-44 -22 -77 -80 -83 -143 -13 -145 133 -250 264 -189
120 56 145 223 45 312 -50 44 -160 54 -226 20z"/>
</g>
</svg>
