<?xml version="1.0" standalone="no"?>
<!DOCTYPE svg PUBLIC "-//W3C//DTD SVG 20010904//EN"
 "http://www.w3.org/TR/2001/REC-SVG-20010904/DTD/svg10.dtd">
<svg version="1.0" xmlns="http://www.w3.org/2000/svg"
 width="700.000000pt" height="700.000000pt" viewBox="0 0 700.000000 700.000000"
 preserveAspectRatio="xMidYMid meet">
<metadata>
Created by potrace 1.14, written by Peter Selinger 2001-2017
</metadata>
<g transform="translate(0.000000,700.000000) scale(0.100000,-0.100000)"
fill="#000000" stroke="none">
<path d="M3525 6165 c-154 -35 -293 -170 -335 -325 -22 -81 -19 -154 14 -310
3 -14 11 -50 17 -80 5 -30 14 -68 19 -85 5 -16 11 -46 13 -66 3 -20 7 -41 10
-45 3 -5 8 -26 11 -46 3 -20 15 -79 27 -130 19 -85 36 -171 44 -224 1 -11 8
-45 14 -75 11 -59 57 -320 66 -384 4 -22 8 -51 11 -65 2 -14 7 -39 9 -56 5
-37 33 -208 40 -244 5 -29 25 -155 30 -185 8 -60 17 -119 30 -195 8 -47 17
-103 20 -125 3 -22 10 -62 15 -90 9 -46 12 -67 26 -165 2 -19 9 -60 14 -91 6
-31 12 -74 15 -95 2 -22 7 -49 10 -60 6 -18 2 -22 -27 -26 -18 -3 -526 -6
-1128 -7 l-1095 -1 -81 77 c-45 43 -124 117 -175 164 -52 47 -141 131 -198
187 l-105 100 15 59 c16 68 20 174 7 223 -58 227 -285 372 -513 326 -11 -3
-20 -5 -20 -6 0 -1 -8 -3 -18 -5 -42 -8 -128 -58 -174 -103 -238 -225 -138
-633 177 -725 50 -15 185 -17 230 -5 8 3 39 12 68 21 l54 16 45 -42 c61 -57
83 -77 199 -183 55 -51 113 -105 130 -120 17 -16 65 -60 106 -97 l75 -69 1
-159 0 -159 -564 0 -564 0 0 -122 c-1 -68 -1 -278 -1 -468 l0 -345 213 -3 213
-2 33 -113 c18 -61 35 -121 37 -132 17 -76 143 -487 153 -497 4 -4 59 10 122
31 63 21 131 43 150 49 19 6 154 52 300 102 146 50 270 93 275 94 6 2 17 6 25
9 8 3 71 24 140 47 69 23 132 44 140 47 8 3 20 7 25 9 6 1 64 21 130 44 66 23
125 43 130 44 6 2 17 6 25 9 28 11 285 99 300 102 8 2 16 4 18 5 1 2 5 3 10 5
4 1 14 4 22 8 36 13 286 99 300 102 8 2 35 11 59 19 36 13 98 16 370 16 316 0
329 -1 401 -24 41 -13 131 -40 200 -61 69 -20 132 -39 140 -42 8 -4 18 -7 23
-8 4 -2 8 -3 10 -5 1 -1 9 -3 17 -5 21 -5 106 -31 425 -129 154 -48 287 -89
295 -91 21 -6 130 -39 230 -70 228 -71 276 -86 290 -89 8 -2 83 -25 165 -51
83 -26 157 -48 165 -50 8 -2 45 -13 83 -24 37 -12 96 -30 132 -40 35 -11 68
-22 73 -25 5 -3 22 -8 38 -11 47 -10 48 -10 62 -18 15 -10 29 25 58 143 2 8 8
31 13 50 9 33 37 138 45 170 2 8 11 42 20 75 9 33 30 112 47 175 17 63 33 117
36 120 4 4 238 8 640 10 l112 0 -1 475 0 475 -479 0 c-375 0 -480 3 -483 13
-2 6 -9 41 -15 77 -16 89 -17 93 -35 190 -8 47 -18 99 -21 115 -3 17 -7 41 -9
55 -3 14 -10 52 -15 85 -6 33 -13 71 -16 85 -3 14 -8 41 -11 60 -8 40 -11 56
-25 125 -6 28 -12 61 -15 75 -5 25 -9 43 -19 79 -4 14 4 25 30 41 20 12 41 27
48 33 6 7 30 25 51 41 57 43 183 172 236 242 25 32 48 61 53 62 4 2 7 8 7 13
0 5 16 33 35 64 19 30 40 65 45 77 6 13 14 30 19 38 11 19 62 138 66 154 1 6
5 18 8 26 12 31 28 89 33 117 3 15 7 35 9 43 24 87 24 444 0 565 -4 18 -9 65
-21 175 -1 19 -5 49 -8 65 -2 17 -7 59 -11 95 -6 59 -19 85 -35 75 -3 -2 -33
-6 -65 -10 -33 -3 -76 -8 -95 -10 -19 -3 -57 -7 -85 -10 -27 -3 -62 -8 -77
-11 -15 -2 -56 -7 -90 -10 -35 -3 -76 -7 -93 -10 -16 -2 -52 -6 -80 -9 -45 -4
-65 -7 -150 -19 -16 -2 -61 -7 -100 -10 -38 -4 -77 -9 -85 -11 -8 -2 -42 -6
-75 -10 -33 -3 -76 -8 -95 -10 -19 -3 -55 -7 -80 -10 -25 -2 -65 -7 -90 -10
-108 -13 -99 -14 -89 11 5 13 14 36 21 52 6 15 12 29 13 32 6 19 48 116 75
175 33 71 43 132 37 220 -13 189 -122 332 -303 396 -66 24 -177 32 -231 17
-20 -5 -45 -11 -56 -13 -59 -12 -170 -92 -217 -157 -16 -21 -49 -87 -73 -146
-42 -102 -58 -141 -62 -152 -1 -3 -7 -18 -13 -35 -7 -16 -29 -74 -50 -127 -20
-54 -40 -98 -43 -98 -3 0 -14 37 -23 83 -10 45 -20 89 -22 97 -2 8 -12 58 -23
110 -42 197 -84 286 -170 361 -110 98 -264 137 -406 104z m208 -296 c15 -16
31 -47 43 -84 8 -23 74 -282 78 -305 2 -14 11 -54 20 -90 8 -36 17 -76 19 -90
3 -14 10 -43 15 -65 6 -22 13 -57 16 -79 4 -21 9 -42 12 -47 3 -5 -3 -9 -13
-10 -10 -1 -29 -2 -43 -4 -14 -2 -45 -6 -70 -8 -25 -3 -45 -6 -45 -7 0 -2 -52
-7 -130 -14 -38 -3 -76 -2 -82 2 -11 7 -28 75 -59 227 -2 11 -11 52 -19 90 -8
39 -17 81 -19 95 -3 14 -5 25 -6 25 -2 0 -7 30 -15 85 -3 25 -8 52 -11 60 -4
8 -8 39 -11 68 -9 104 61 187 169 201 57 7 115 -12 151 -50z m1079 2 c46 -21
80 -49 116 -95 35 -45 29 -106 -24 -232 -9 -21 -17 -41 -17 -44 0 -3 -11 -26
-24 -51 -13 -26 -23 -50 -23 -54 0 -5 -23 -54 -51 -111 l-51 -103 -51 -10
c-29 -6 -79 -13 -112 -16 -33 -3 -67 -8 -75 -10 -8 -2 -50 -7 -94 -10 -73 -6
-78 -5 -71 12 4 10 13 36 20 58 12 35 48 129 74 190 5 11 28 70 51 130 100
262 101 264 148 306 68 59 116 70 184 40z m1402 -782 c9 -8 24 -133 31 -256 5
-85 4 -87 -35 -85 -50 2 -166 67 -221 124 -46 48 -99 137 -99 167 0 15 6 21
23 22 12 0 31 2 42 5 11 2 38 6 60 8 93 10 160 19 163 21 5 4 30 0 36 -6z
m-589 -111 c17 -52 62 -148 74 -158 3 -3 12 -17 19 -31 23 -44 124 -143 187
-184 81 -51 177 -90 264 -105 57 -11 70 -16 67 -29 -3 -9 -10 -36 -16 -61 -36
-137 -118 -306 -205 -419 -35 -46 -194 -196 -250 -235 -125 -90 -282 -158
-440 -191 -88 -18 -284 -26 -355 -13 -186 33 -293 74 -400 154 -80 61 -134
129 -180 229 -35 75 -44 104 -56 180 -14 89 -48 148 -91 161 -28 7 -33 8 -73
5 -11 0 -37 -16 -57 -35 -33 -30 -37 -38 -37 -87 0 -68 17 -162 42 -229 3 -8
6 -18 7 -22 2 -5 4 -10 5 -13 1 -3 3 -8 4 -12 1 -5 14 -35 29 -68 119 -256
347 -428 662 -501 38 -8 81 -17 95 -19 14 -2 50 -6 80 -11 164 -22 372 -3 543
50 55 17 79 21 82 13 7 -24 24 -103 30 -137 6 -41 28 -162 55 -305 11 -55 26
-140 34 -190 9 -49 18 -100 20 -111 16 -81 16 -92 -4 -97 -11 -3 -205 -6 -432
-7 -514 -2 -533 -2 -559 -26 -73 -66 -57 -181 31 -216 14 -6 99 -12 190 -14
91 -3 171 -6 178 -9 6 -2 12 0 12 5 0 5 12 6 28 3 15 -3 32 -5 37 -5 20 1 121
2 140 1 58 -1 462 -1 473 0 24 2 39 2 182 2 80 0 154 0 165 0 11 0 135 0 276
0 l256 0 1 -206 0 -205 -1323 0 c-1024 1 -1325 4 -1333 13 -6 7 -13 35 -16 62
-3 28 -8 61 -11 75 -3 14 -8 41 -10 60 -3 19 -7 51 -10 70 -44 256 -65 387
-71 427 -3 26 -8 57 -10 68 -2 11 -9 49 -15 85 -5 36 -12 77 -14 93 -12 66
-14 84 -20 117 -3 19 -8 49 -11 65 -4 17 -7 39 -9 50 -1 11 -3 20 -5 20 -1 0
-3 18 -5 40 -1 22 -5 54 -8 70 -4 17 -11 59 -17 95 -5 36 -12 76 -15 90 -5 32
-26 157 -30 190 -2 14 -7 41 -10 60 -8 43 -11 63 -19 120 -3 25 -8 56 -11 70
-3 14 -12 68 -20 120 -18 111 -19 117 -39 235 -8 50 -18 108 -21 130 -3 23 -7
50 -9 62 -6 30 -17 94 -21 128 -2 17 -14 89 -26 160 -31 187 -31 178 16 186
22 4 69 10 105 14 36 4 72 8 80 10 8 2 44 6 80 10 36 4 67 9 70 10 4 2 40 7
80 10 41 4 86 8 100 9 14 2 43 6 65 9 22 4 60 9 85 12 25 2 65 7 90 10 25 3
63 8 84 10 21 3 55 7 75 9 36 5 117 15 181 22 19 2 55 6 80 9 25 4 65 8 90 11
66 6 124 13 162 19 18 3 56 7 83 10 28 3 70 8 95 11 25 3 61 7 80 9 58 5 254
30 271 34 4 0 14 -22 24 -51z m-5113 -1118 c81 -38 109 -169 53 -250 -29 -42
-52 -56 -111 -68 -138 -30 -248 133 -173 255 27 43 84 82 115 78 13 -1 24 1
24 5 0 10 55 -3 92 -20z m3152 -1147 c8 -47 18 -107 21 -128 2 -11 15 -90 29
-175 15 -85 29 -171 32 -190 2 -19 7 -44 9 -56 3 -12 7 -39 10 -60 3 -21 8
-55 11 -74 4 -19 8 -44 9 -55 2 -11 6 -38 9 -60 4 -22 8 -49 9 -60 2 -20 -5
-20 -1735 -23 l-1737 -3 -3 206 -3 206 50 -1 c28 0 57 0 65 1 13 0 515 1 560
0 25 0 224 0 240 0 8 0 41 0 73 -1 32 -1 61 0 63 3 3 3 18 2 33 -3 60 -17 61
-14 61 255 l0 245 1094 0 1094 0 6 -27z m2296 -1155 c0 -19 -89 -357 -103
-388 l-12 -28 -60 19 c-33 11 -69 22 -79 24 -11 3 -40 11 -65 19 -105 33 -708
222 -756 237 -16 5 -64 19 -105 33 -41 13 -115 36 -165 52 -49 15 -93 30 -97
33 -4 3 319 7 717 8 555 2 725 0 725 -9z m-3858 -9 c-6 -6 -72 -29 -97 -35 -5
-1 -197 -66 -425 -144 -344 -118 -473 -161 -520 -175 -3 -1 -12 -4 -20 -8 -96
-37 -129 -45 -138 -34 -9 11 -59 168 -67 209 -2 9 -9 26 -15 37 -6 12 -8 21
-6 21 3 0 -1 17 -8 38 -7 20 -16 51 -19 68 l-6 31 664 -1 c365 0 661 -4 657
-7z"/>
<path d="M4640 4627 c-144 -46 -161 -245 -28 -333 41 -28 54 -31 103 -29 138
8 218 139 163 267 -36 85 -139 126 -238 95z"/>
</g>
</svg>
