<?xml version="1.0" encoding="UTF-8" standalone="no"?>
<svg
   xmlns:dc="http://purl.org/dc/elements/1.1/"
   xmlns:cc="http://creativecommons.org/ns#"
   xmlns:rdf="http://www.w3.org/1999/02/22-rdf-syntax-ns#"
   xmlns:svg="http://www.w3.org/2000/svg"
   xmlns="http://www.w3.org/2000/svg"
   xmlns:sodipodi="http://sodipodi.sourceforge.net/DTD/sodipodi-0.dtd"
   xmlns:inkscape="http://www.inkscape.org/namespaces/inkscape"
   viewBox="0 0 700 539"
   height="539"
   width="700"
   version="1.1"
   id="svg3406"
   inkscape:version="0.91 r13725"
   sodipodi:docname="fav-logo.svg">
  <sodipodi:namedview
     pagecolor="#ffffff"
     bordercolor="#666666"
     borderopacity="1"
     objecttolerance="10"
     gridtolerance="10"
     guidetolerance="10"
     inkscape:pageopacity="0"
     inkscape:pageshadow="2"
     inkscape:window-width="1366"
     inkscape:window-height="717"
     id="namedview6"
     showgrid="false"
     inkscape:zoom="0.38"
     inkscape:cx="373.68421"
     inkscape:cy="269.5"
     inkscape:window-x="0"
     inkscape:window-y="0"
     inkscape:window-maximized="1"
     inkscape:current-layer="svg3406" />
  <metadata
     id="metadata3412">
    <rdf:RDF>
      <cc:Work
         rdf:about="">
        <dc:format>image/svg+xml</dc:format>
        <dc:type
           rdf:resource="http://purl.org/dc/dcmitype/StillImage" />
        <dc:title />
      </cc:Work>
    </rdf:RDF>
  </metadata>
  <defs
     id="defs3410" />
  <path
     id="path3416"
     d="m 67.552034,519.75007 c -3.073075,-10.5875 -7.931679,-27.4625 -10.796897,-37.5 l -5.209491,-18.25 -21.35144,0 -21.35145,0 0,-47 0,-47 56.500004,0 56.5,0 0,-15.82968 0,-15.82968 -27.943597,-25.68219 -27.943596,-25.68218 -7.482721,2.51186 c -28.41362,9.53814 -56.1142299,-8.49683 -58.3474199,-37.98813 -1.31304,-17.33991 7.77139,-33.47203 23.1087799,-41.03656 12.84437,-6.33494 25.88334,-6.63202 38.538688,-0.87805 19.049699,8.66126 29.177586,30.37282 23.532086,50.44668 -0.84578,3.00736 -1.63328,5.96376 -1.75,6.56979 -0.116721,0.60602 12.510296,12.86852 28.06004,27.25 l 28.27226,26.14814 112.47774,0 c 83.80203,0 112.47773,-0.29186 112.47773,-1.14478 0,-0.62963 -6.54698,-41.91713 -14.54884,-91.75 -12.31588,-76.6991 -15.86428,-96.59095 -23.11958,-129.605224 -4.7139,-21.449999 -8.96148,-42.092404 -9.43906,-45.872009 -3.50014,-27.700582 20.39345,-52.50613668 48.49882,-50.3499177 14.0634,1.078931 26.58981,8.334704 34.35371,19.8989607 4.65364,6.931547 6.3266,12.556083 12.36547,41.572967 1.86003,8.9375 3.60859,16.242224 3.88568,16.232721 0.27709,-0.0095 4.7477,-11.273879 9.93468,-25.031945 5.18699,-13.758066 10.8971,-27.191865 12.68913,-29.852886 12.6141,-18.7308537 37.36101,-25.2034377 57.49755,-15.0385487 16.1284,8.1415957 25.04072,22.6743647 25.15507,41.0188167 0.0533,8.558594 0.035,8.621248 -8.05544,27.470806 -4.4599,10.390955 -8.02077,18.968585 -7.91305,19.061385 0.10772,0.0928 31.24586,-3.54284 69.19586,-8.07921 37.95,-4.53638 69.08648,-8.187697 69.19218,-8.114038 0.1057,0.07366 1.8448,14.297448 3.86467,31.608412 3.21174,27.52576 3.60051,33.29363 3.09878,45.97449 -0.66464,16.7983 -2.71535,26.97998 -8.55565,42.47826 -10.51694,27.90861 -30.86091,53.16007 -56.10147,69.63459 -1.94953,1.27247 -2.2278,1.90595 -1.3185,3.00159 0.6339,0.7638 4.78911,21.63802 9.23379,46.38715 4.44468,24.74912 8.31592,46.01091 8.60277,47.24841 l 0.52153,2.25 47.98095,0 47.98095,0 0,47.48797 0,47.48798 -37.6859,0.26202 -37.6859,0.26203 -9.90671,37 c -5.4487,20.35 -9.98742,37.08488 -10.08606,37.18862 -0.0986,0.10374 -55.06946,-16.64833 -122.15738,-37.22683 L 360.34275,464.0464 327.75454,464.0232 295.16633,464 185.26948,501.5 C 124.82621,522.125 74.870154,539 74.256031,539 c -0.614124,0 -3.630922,-8.6625 -6.703997,-19.25 z m 84.574746,-35.75 60.54117,-20.5 -67.07217,-0.25709 c -36.8897,-0.1414 -67.252051,-0.0772 -67.471898,0.14263 -0.219847,0.21985 1.679197,7.53554 4.220099,16.25709 6.440634,22.10725 7.583199,25.50199 8.467482,25.15828 0.425784,-0.1655 28.017677,-9.52591 61.315317,-20.80091 z m 438.91263,-0.25 c 3.08951,-11.6875 5.50624,-21.36542 5.37049,-21.50649 -0.13574,-0.14107 -33.4258,-0.14107 -73.9779,0 l -73.73111,0.25649 67.82093,21.18512 c 37.30151,11.65182 68.06379,21.21432 68.36061,21.25 0.29683,0.0357 3.06747,-9.49762 6.15698,-21.18512 z M 380.84275,435.60851 c 0,-0.87018 -14.02868,-86.27202 -14.51435,-88.35844 l -0.52375,-2.25 -109.48095,0 -109.48094,0 0,25 0,25 -57,0 -57.000004,0 0,20.5 0,20.5 174.000004,0 c 95.69999,0 173.99999,-0.1762 173.99999,-0.39156 z m 293,-20.10844 0,-20.5 -95.18428,0 c -93.82652,0 -95.24451,-0.0292 -99.40703,-2.0442 -8.93231,-4.32406 -9.85149,-15.52934 -1.79381,-21.8675 2.60999,-2.05302 3.48034,-2.0883 51.51998,-2.0883 46.46417,0 48.86514,-0.0888 48.86514,-1.80754 0,-1.92312 -14.88696,-83.41275 -15.31681,-83.84261 -0.1395,-0.1395 -4.4338,1.05692 -9.54289,2.6587 -15.65437,4.90791 -29.67299,6.43716 -47.02861,5.1302 -36.23294,-2.7285 -63.2161,-15.53188 -80.74633,-38.31372 -9.40548,-12.22313 -17.36381,-34.0121 -17.71545,-48.50282 -0.13497,-5.56231 0.1405,-6.48156 2.76504,-9.22688 8.2898,-8.67133 20.46172,-4.45456 22.10933,7.65942 4.4942,33.04344 23.26632,52.58102 57.47572,59.81942 29.64462,6.27252 63.16675,-1.41822 88.52356,-20.30933 9.26704,-6.90405 21.43112,-19.36122 27.18701,-27.84209 7.70001,-11.34536 14.98262,-28.19142 17.70656,-40.9586 l 0.64771,-3.03585 -8.72855,-1.64786 c -15.17097,-2.86412 -29.83056,-11.63435 -39.98432,-23.92098 -4.99023,-6.03845 -11.94436,-19.1698 -12.9276,-24.41091 -0.3581,-1.90885 -0.99679,-3.68429 -1.4193,-3.94541 -0.89616,-0.55386 -199.5961,23.18398 -200.74917,23.98265 -0.13426,0.093 10.55324,66.46258 23.75,147.48797 13.19675,81.02539 23.9941,147.47804 23.9941,147.67257 0,0.19452 59.85,0.35367 133,0.35367 l 133,0 z M 463.84989,191.40709 c -13.68209,-5.93332 -16.12821,-24.111 -4.44383,-33.02311 7.06635,-4.2006 16.95957,-4.46219 22.87338,0 8.82344,6.72997 10.13531,20.08498 2.74969,27.99219 -5.61639,6.01303 -14.20823,8.05393 -21.17924,5.03092 z M 51.931646,262.9525 c 1.0064,-0.53861 3.051279,-2.58071 4.544175,-4.538 6.628921,-8.69096 2.874837,-22.59317 -7.134895,-26.42208 -16.82311,-6.43517 -31.36381,13.31798 -19.864,26.98472 2.94159,3.49589 5.56069,5.09157 9.86583,6.01075 3.12978,0.66822 9.445,-0.35283 12.58889,-2.03539 z M 624.78954,140.25007 c -0.0694,-6.19446 -2.50812,-30.14467 -3.13311,-30.76966 -0.47521,-0.47521 -30.14098,3.18642 -32.54472,4.01698 -0.9096,0.31429 -0.69541,1.67569 0.82033,5.21402 4.8383,11.29443 15.12441,20.65059 26.81525,24.39091 8.06334,2.57976 8.10294,2.56571 8.04225,-2.85225 z M 376.734,111.01933 c 9.01519,-1.08264 16.55747,-2.13465 16.76062,-2.33779 0.20314,-0.20315 -3.18372,-16.012334 -7.52637,-35.131522 -8.6568,-38.112887 -9.72193,-40.855322 -17.41026,-44.826968 -12.14436,-6.27355 -27.65124,2.937141 -27.69879,16.452383 -0.0131,3.716578 11.70384,61.603937 13.4753,66.574637 0.59374,1.66602 3.13073,1.58326 22.3995,-0.73074 z m 77.02264,-7.05422 c 9.12236,-1.11923 17.53362,-2.23649 18.69169,-2.48281 1.66702,-0.35456 4.24074,-5.294054 12.35674,-23.715037 10.93362,-24.81618 11.99595,-29.110988 8.74234,-35.343727 -3.15773,-6.04907 -12.72265,-12.379545 -18.70466,-12.379545 -6.04265,0 -15.64773,6.948162 -17.89849,12.947486 -0.51763,1.379724 -5.90837,15.33359 -11.97942,31.00859 -6.07105,15.674999 -11.33028,29.287503 -11.68717,30.250003 -0.83839,2.26105 -0.20009,2.25217 20.47897,-0.28496 z"
     style="fill:#582a72;fill-opacity:1" />
</svg>
